<svg width="24" height="24" viewBox="0 0 24 24" fill="none" xmlns="http://www.w3.org/2000/svg">
<path d="M13.8523 20.1334H13.6493C13.2402 20.0928 12.8547 19.9228 12.5487 19.6482C12.2428 19.3735 12.0323 19.0085 11.948 18.6061L9.35735 6.60007L6.68935 12.7867C6.61388 12.9597 6.48947 13.1067 6.33144 13.2098C6.17341 13.3128 5.98868 13.3674 5.80002 13.3667H2.90002C2.64364 13.3667 2.39776 13.2649 2.21648 13.0836C2.03519 12.9023 1.93335 12.6564 1.93335 12.4001C1.93335 12.1437 2.03519 11.8978 2.21648 11.7165C2.39776 11.5353 2.64364 11.4334 2.90002 11.4334H5.16202L7.58835 5.83641C7.75168 5.46082 8.03007 5.1468 8.38337 4.93964C8.73668 4.73247 9.14665 4.64286 9.55417 4.68372C9.96169 4.72458 10.3457 4.8938 10.6509 5.16698C10.956 5.44017 11.1665 5.8032 11.252 6.20374L13.8427 18.2001L16.5107 12.0327C16.5832 11.8562 16.7064 11.7051 16.8646 11.5984C17.0229 11.4918 17.2092 11.4344 17.4 11.4334H20.3C20.5564 11.4334 20.8023 11.5353 20.9836 11.7165C21.1648 11.8978 21.2667 12.1437 21.2667 12.4001C21.2667 12.6564 21.1648 12.9023 20.9836 13.0836C20.8023 13.2649 20.5564 13.3667 20.3 13.3667H18.038L15.6117 18.9637C15.4635 19.3084 15.2183 19.6024 14.9059 19.8101C14.5935 20.0178 14.2275 20.1301 13.8523 20.1334Z" fill="#141925"/>
</svg>
