<svg width="390" height="348" viewBox="0 0 390 348" fill="none" xmlns="http://www.w3.org/2000/svg">
<path d="M179.422 113.246C184.488 164.196 158.447 252.784 13.7532 199.541C-130.941 146.298 -137.392 74.3289 -122.531 45" stroke="#A9CA89" stroke-width="2"/>
<path d="M150 0C157.035 70.8 196.431 207.073 297.736 185.765C399.041 164.456 428.789 106.769 431 80.5891" stroke="#A9CA89" stroke-width="2"/>
<path d="M236 0C241.601 41.3098 269.144 120.894 334.505 108.754C399.865 96.6143 420.069 67.1635 422 53.9556" stroke="#A9CA89" stroke-width="2"/>
<path d="M52.8605 -0.291974C84.0446 30.2076 126.579 99.3602 47.2458 131.974C-32.0878 164.588 -48.8535 92.4792 -47.3197 52.348" stroke="#A9CA89" stroke-width="2"/>
<path d="M150 194.676C187.527 243.324 280.352 294.027 351 260C404.352 234.303 442.041 173.775 436.704 159" stroke="#A9CA89" stroke-width="2"/>
<path d="M228 254C184.5 303.494 73.2 379.102 -24 285.578" stroke="#A9CA89" stroke-width="2"/>
<path d="M152 312.829C222.333 349.043 352 378 420 278" stroke="#A9CA89" stroke-width="2"/>
</svg>
